<svg width="192" height="192" viewBox="0 0 512 512" fill="none" xmlns="http://www.w3.org/2000/svg">
  <circle cx="256" cy="256" r="256" fill="#667eea"/>
  <g transform="translate(256, 256)">
    <ellipse cx="0" cy="-20" rx="80" ry="100" fill="#764ba2" opacity="0.3"/>
    <path d="M -60 -60 Q -40 -80, -20 -60 T 20 -60 T 60 -60" stroke="white" stroke-width="8" fill="none" stroke-linecap="round"/>
    <path d="M -50 -30 Q -30 -50, -10 -30 T 30 -30 T 70 -30" stroke="white" stroke-width="8" fill="none" stroke-linecap="round" opacity="0.7"/>
    <path d="M 0 40 L -25 15 Q -35 5, -35 -5 Q -35 -20, -20 -20 Q -10 -20, 0 -10 Q 10 -20, 20 -20 Q 35 -20, 35 -5 Q 35 5, 25 15 Z" fill="white"/>
    <text x="-15" y="100" font-family="Arial, sans-serif" font-size="60" font-weight="bold" fill="white">AS</text>
  </g>
</svg>
